<?xml version="1.0" encoding="utf-8"?>
<!-- Generator: Adobe Illustrator 28.0.0, SVG Export Plug-In . SVG Version: 6.00 Build 0)  -->
<svg version="1.1" id="レイヤー_1" xmlns="http://www.w3.org/2000/svg" xmlns:xlink="http://www.w3.org/1999/xlink" x="0px"
	 y="0px" viewBox="0 0 1920 1080" style="enable-background:new 0 0 1920 1080;" xml:space="preserve">
<style type="text/css">
	.st0{clip-path:url(#SVGID_00000132810543107876387850000005810971198829706680_);}
	.st1{fill:#F08600;}
	.st2{clip-path:url(#SVGID_00000072979363703924222960000010089236212092343970_);}
	.st3{fill:#FFFFFF;}
	.st4{clip-path:url(#SVGID_00000078758433765617146530000005258812276283970453_);}
	.st5{fill:none;stroke:#F08600;stroke-width:32.1496;stroke-linecap:round;stroke-linejoin:round;}
	.st6{fill:none;stroke:#F08600;stroke-width:7.2657;stroke-miterlimit:10;}
</style>
<g>
	<g>
		<g>
			<defs>
				<path id="SVGID_00000156552288737838567100000004424485833958573727_" d="M1167.26,869.56H714.07c-56.88,0-103-46.11-103-103
					V313.38c0-56.88,46.11-103,103-103h453.18c56.88,0,103,46.11,103,103v453.18C1270.25,823.45,1224.14,869.56,1167.26,869.56z"/>
			</defs>
			<clipPath id="SVGID_00000113347849371236450230000002439340406599564673_">
				<use xlink:href="#SVGID_00000156552288737838567100000004424485833958573727_"  style="overflow:visible;"/>
			</clipPath>
			<g style="clip-path:url(#SVGID_00000113347849371236450230000002439340406599564673_);">
				<path class="st1" d="M1167.26,869.56H714.07c-56.88,0-103-46.11-103-103V313.38c0-56.88,46.11-103,103-103h453.18
					c56.88,0,103,46.11,103,103v453.18C1270.25,823.45,1224.14,869.56,1167.26,869.56z"/>
			</g>
		</g>
		<g>
			<defs>
				<path id="SVGID_00000066487705910591338380000016459746501847217313_" d="M1167.26,869.56H714.07c-56.88,0-103-46.11-103-103
					V313.38c0-56.88,46.11-103,103-103h453.18c56.88,0,103,46.11,103,103v453.18C1270.25,823.45,1224.14,869.56,1167.26,869.56z"/>
			</defs>
			<clipPath id="SVGID_00000169538614374669103380000003520496157900611002_">
				<use xlink:href="#SVGID_00000066487705910591338380000016459746501847217313_"  style="overflow:visible;"/>
			</clipPath>
			<g style="clip-path:url(#SVGID_00000169538614374669103380000003520496157900611002_);">
				<path class="st3" d="M1164.16,744.59l-134.17-500.73c-2.62-9.76-12.64-15.56-22.42-12.94L730.7,305.11
					c-9.76,2.62-15.55,12.65-12.93,22.41l134.17,500.73c2.62,9.76,12.65,15.56,22.4,12.94l276.88-74.19
					C1160.99,764.38,1166.78,754.35,1164.16,744.59z M862.8,770.08L754.47,365.81l262.88-70.44l108.32,404.27L862.8,770.08z"/>
				<ellipse class="st3" cx="929.78" cy="485.02" rx="118.46" ry="118.46"/>
				<polygon class="st3" points="1111.66,395.57 1153.39,320.25 1177.19,335.79 				"/>
				<polygon class="st3" points="1087.93,385.81 1093.92,299.92 1122.06,303.94 				"/>
				<g>
					<path class="st1" d="M904.52,497.93c0.94,8.6,3.53,28.24,35.28,28.24c20.46,0,32.45-5.64,44.45-11.54v38.55
						c-7.29,3.2-22.58,9.58-46.57,9.58c-63.27,0-73.62-51.08-73.62-76.62c0-46.41,27.28-78.82,66.09-78.82
						c13.64,0,43.98,4.66,58.1,40.51c6.11,15.47,7.3,33.64,7.3,50.1H904.52L904.52,497.93z M955.55,468.21
						c-1.17-7.61-5.41-25.05-25.4-25.05c-20.46,0-23.52,17.69-24.93,25.05H955.55z"/>
				</g>
			</g>
		</g>
		<g>
			<defs>
				<path id="SVGID_00000076568553794154542010000017490064168366169014_" d="M1167.26,869.56H714.07c-56.88,0-103-46.11-103-103
					V313.38c0-56.88,46.11-103,103-103h453.18c56.88,0,103,46.11,103,103v453.18C1270.25,823.45,1224.14,869.56,1167.26,869.56z"/>
			</defs>
			<clipPath id="SVGID_00000046298834307399085380000015417387790541846692_">
				<use xlink:href="#SVGID_00000076568553794154542010000017490064168366169014_"  style="overflow:visible;"/>
			</clipPath>
			<g style="clip-path:url(#SVGID_00000046298834307399085380000015417387790541846692_);">
				<g>
					<path class="st5" d="M754.46,609.52c-5.64,33.38-18.27,55.98-27.91,69.59c21.26,15.94,31.89,24.25,51.66,43.85l-24.58,23.92
						c-9.64-10.8-24.58-27.74-44.85-46.01c-27.41,28.07-48,38.7-62.29,44.68l-16.28-24.25c20.93-8.81,40.19-21.26,55.81-37.54
						c19.43-19.93,26.74-38.7,29.9-46.68h-75.57v-27.57L754.46,609.52L754.46,609.52z"/>
					<path class="st5" d="M789.02,656.86c20.76-12.29,34.21-28.07,42.36-48.34h96.5c-1.17,15.28-3.82,54.98-31.89,89.53
						c-12.96,15.95-37.87,38.7-81.89,49.5l-15.11-26.08c12.62-2.49,39.04-8.64,64.28-32.23c-14.62-10.96-21.93-16.11-37.38-24.08
						c-5.48,5.15-9.96,8.97-17.61,13.79L789.02,656.86z M850.81,635.11c-3.49,5.15-5.15,7.47-8.14,11.46
						c15.28,6.81,25.74,12.46,37.7,21.43c4.49-7.81,8.47-16.11,11.63-32.89L850.81,635.11L850.81,635.11z"/>
					<path class="st5" d="M998.15,659.86c-16.61-11.13-31.06-18.27-51.99-25.58l12.96-24.75c20.93,6.31,36.21,12.79,54.48,23.75
						L998.15,659.86z M949.32,712.68c12.79-1.17,51.49-4.65,76.4-26.74c17.44-15.28,30.06-42.52,36.87-69.43l25.58,17.44
						c-23.42,78.23-66.27,100.82-132.05,110.12L949.32,712.68z"/>
					<path class="st5" d="M1193.99,612.18l29.74,35.21c-4.15,21.1-15.78,79.89-100.99,97.84l-13.12-27.41
						c68.27-13.12,78.73-45.85,83.88-76.91h-93.68v-28.74L1193.99,612.18L1193.99,612.18z M1251.12,612.68
						c0,12.46-10.13,22.42-22.42,22.42c-12.46,0-22.42-9.96-22.42-22.42c0-12.46,10.13-22.42,22.42-22.42
						S1251.12,600.22,1251.12,612.68z M1217.74,612.68c0,6.15,4.81,10.96,10.96,10.96c5.98,0,10.96-4.81,10.96-10.96
						c0-6.15-5.15-10.96-10.96-10.96C1222.72,601.72,1217.74,606.54,1217.74,612.68z"/>
				</g>
				<g>
					<path class="st3" d="M754.46,609.52c-5.64,33.38-18.27,55.98-27.91,69.59c21.26,15.94,31.89,24.25,51.66,43.85l-24.58,23.92
						c-9.64-10.8-24.58-27.74-44.85-46.01c-27.41,28.07-48,38.7-62.29,44.68l-16.28-24.25c20.93-8.81,40.19-21.26,55.81-37.54
						c19.43-19.93,26.74-38.7,29.9-46.68h-75.57v-27.57L754.46,609.52L754.46,609.52z"/>
					<path class="st3" d="M789.02,656.86c20.76-12.29,34.21-28.07,42.36-48.34h96.5c-1.17,15.28-3.82,54.98-31.89,89.53
						c-12.96,15.95-37.87,38.7-81.89,49.5l-15.11-26.08c12.62-2.49,39.04-8.64,64.28-32.23c-14.62-10.96-21.93-16.11-37.38-24.08
						c-5.48,5.15-9.96,8.97-17.61,13.79L789.02,656.86z M850.81,635.11c-3.49,5.15-5.15,7.47-8.14,11.46
						c15.28,6.81,25.74,12.46,37.7,21.43c4.49-7.81,8.47-16.11,11.63-32.89L850.81,635.11L850.81,635.11z"/>
					<path class="st3" d="M998.15,659.86c-16.61-11.13-31.06-18.27-51.99-25.58l12.96-24.75c20.93,6.31,36.21,12.79,54.48,23.75
						L998.15,659.86z M949.32,712.68c12.79-1.17,51.49-4.65,76.4-26.74c17.44-15.28,30.06-42.52,36.87-69.43l25.58,17.44
						c-23.42,78.23-66.27,100.82-132.05,110.12L949.32,712.68z"/>
					<path class="st3" d="M1193.99,612.18l29.74,35.21c-4.15,21.1-15.78,79.89-100.99,97.84l-13.12-27.41
						c68.27-13.12,78.73-45.85,83.88-76.91h-93.68v-28.74L1193.99,612.18L1193.99,612.18z M1251.12,612.68
						c0,12.46-10.13,22.42-22.42,22.42c-12.46,0-22.42-9.96-22.42-22.42c0-12.46,10.13-22.42,22.42-22.42
						S1251.12,600.22,1251.12,612.68z M1217.74,612.68c0,6.15,4.81,10.96,10.96,10.96c5.98,0,10.96-4.81,10.96-10.96
						c0-6.15-5.15-10.96-10.96-10.96C1222.72,601.72,1217.74,606.54,1217.74,612.68z"/>
				</g>
			</g>
		</g>
		<g>
			<path id="SVGID_1_" class="st6" d="M1167.26,869.56H714.07c-56.88,0-103-46.11-103-103V313.38c0-56.88,46.11-103,103-103h453.18
				c56.88,0,103,46.11,103,103v453.18C1270.25,823.45,1224.14,869.56,1167.26,869.56z"/>
		</g>
	</g>
</g>
</svg>
